<?xml version="1.0" encoding="UTF-8" standalone="no"?>
<svg
   width="240px"
   height="64px"
   viewBox="0 0 240 64"
   version="1.1"
   id="svg8"
   sodipodi:docname="logo.svg"
   inkscape:version="1.2.1 (9c6d41e410, 2022-07-14)"
   xmlns:inkscape="http://www.inkscape.org/namespaces/inkscape"
   xmlns:sodipodi="http://sodipodi.sourceforge.net/DTD/sodipodi-0.dtd"
   xmlns="http://www.w3.org/2000/svg"
   xmlns:svg="http://www.w3.org/2000/svg">
  <defs
     id="defs12" />
  <sodipodi:namedview
     id="namedview10"
     pagecolor="#505050"
     bordercolor="#ffffff"
     borderopacity="1"
     inkscape:showpageshadow="0"
     inkscape:pageopacity="0"
     inkscape:pagecheckerboard="1"
     inkscape:deskcolor="#505050"
     showgrid="false"
     inkscape:zoom="1.7824983"
     inkscape:cx="104.62843"
     inkscape:cy="32.5386"
     inkscape:window-width="1920"
     inkscape:window-height="1009"
     inkscape:window-x="-8"
     inkscape:window-y="-8"
     inkscape:window-maximized="1"
     inkscape:current-layer="text241" />
  <title
     id="title2">logo</title>
  <g
     aria-label="CyberSpace"
     id="text241"
     style="font-weight:bold;font-size:43.7883px;-inkscape-font-specification:'sans-serif, Bold';stroke-width:1.49027;stroke-miterlimit:1.4">
    <path
       d="m 17.272656,13.389971 q 2.890027,0 4.729136,0.875766 1.882897,0.831978 3.327911,1.970473 0.875766,0.656825 1.313649,0.175154 0.481671,-0.52546 0.656824,-2.408357 h 1.007131 q -0.08758,1.707744 -0.131365,4.159889 -0.04379,2.408356 -0.04379,6.43688 h -1.007131 q -0.218942,-2.014262 -0.569248,-3.415488 -0.350306,-1.445014 -0.963343,-2.539721 -0.613036,-1.094708 -1.751532,-1.970474 -1.094707,-1.094707 -2.539721,-1.620167 -1.445014,-0.525459 -3.021393,-0.525459 -2.364568,0 -4.028523,1.26986 -1.663956,1.226073 -2.714875,3.371699 -1.007131,2.145627 -1.488802,4.860502 -0.4816712,2.671086 -0.4816712,5.561114 0,2.933816 0.4816712,5.64869 0.52546,2.671087 1.576379,4.772925 1.094707,2.101838 2.802451,3.327911 1.707744,1.226072 4.028524,1.226072 1.445014,0 2.890027,-0.525459 1.488803,-0.569248 2.539722,-1.620168 1.707743,-1.313649 2.32078,-3.240334 0.613036,-1.970473 0.919554,-5.210807 h 1.007131 q 0,4.159888 0.04379,6.743398 0.04379,2.539721 0.131365,4.291253 h -1.007131 q -0.175153,-1.882897 -0.613036,-2.364568 -0.394095,-0.481671 -1.357437,0.131365 -1.620167,1.138496 -3.459276,2.014262 -1.79532,0.831977 -4.64156,0.831977 -4.64156,0 -8.1446235,-1.882897 -3.4592756,-1.882896 -5.3859608,-5.429749 -1.9266852,-3.546852 -1.9266852,-8.538718 0,-4.90429 1.9704735,-8.582507 2.0142618,-3.678217 5.4735374,-5.736267 3.5030636,-2.05805 8.0570476,-2.05805 z"
       style="fill:#2f2f41"
       id="path1889" />
    <path
       d="m 53.222847,22.366572 v 0.875766 q -0.831978,0.218942 -1.576379,1.050919 -0.744401,0.78819 -1.445014,2.714875 l -6.17415,17.340167 -1.620167,3.065181 -9.545849,-21.675209 q -0.744402,-1.707743 -1.488803,-2.05805 -0.700612,-0.394094 -1.226072,-0.394094 v -0.919555 q 1.445014,0.131365 2.977604,0.218942 1.576379,0.04379 3.021393,0.04379 1.79532,0 3.284122,-0.08758 1.488803,-0.08758 2.802452,-0.175153 v 0.919555 q -0.875766,0 -1.663956,0.131364 -0.744401,0.08758 -1.050919,0.613037 -0.26273,0.481671 0.26273,1.707743 l 5.517326,13.311643 -0.394095,0.26273 3.240334,-9.064178 q 0.831978,-2.364568 0.700613,-3.85337 -0.131365,-1.532591 -0.963343,-2.276992 -0.831977,-0.788189 -2.276991,-0.875766 v -0.875766 q 0.700612,0.04379 1.445014,0.08758 0.744401,0 1.488802,0.04379 0.744401,0 1.313649,0 0.875766,0 1.839108,-0.04379 0.963343,-0.04379 1.532591,-0.08758 z m -9.195543,21.981727 -1.663955,4.685348 q -0.437883,1.094707 -0.919555,1.839108 -0.437883,0.78819 -1.007131,1.269861 -0.613036,0.52546 -1.576378,0.788189 -0.963343,0.306518 -2.233204,0.306518 -1.050919,0 -2.189415,-0.350306 -1.094707,-0.350306 -1.839108,-1.138496 -0.744401,-0.788189 -0.744401,-2.014262 0,-1.357437 0.963342,-2.189414 0.963343,-0.78819 2.539722,-0.78819 1.445013,0 2.364568,0.700613 0.919554,0.700613 0.919554,2.05805 0,0.875766 -0.569248,1.663955 -0.525459,0.78819 -1.620167,1.182284 0.218942,0.04379 0.52546,0.04379 0.306518,0 0.481671,0 1.313649,0 2.32078,-0.831978 1.007131,-0.831978 1.663955,-2.627298 l 1.532591,-4.510195 z"
       style="fill:#2f2f41"
       id="path1891" />
    <path
       d="m 69.555843,21.753536 q 3.415487,0 5.64869,2.802451 2.276992,2.758663 2.276992,8.538719 0,4.553983 -1.401226,7.312646 -1.357437,2.758663 -3.634429,3.984735 -2.276991,1.226072 -4.991866,1.226072 -1.79532,0 -3.32791,-0.613036 -1.532591,-0.613036 -2.627298,-2.014262 l 0.613036,-0.218941 q 0.788189,0.963342 1.839108,1.445014 1.094708,0.481671 2.145627,0.481671 2.408356,0 3.590641,-2.714875 1.182284,-2.714874 1.182284,-8.275988 0,-3.765794 -0.481672,-5.955209 -0.437883,-2.233203 -1.313649,-3.152757 -0.875766,-0.963343 -2.101838,-0.963343 -1.532591,0 -2.802451,1.269861 -1.269861,1.226072 -1.445014,3.459275 l -0.218942,-1.53259 q 0.78819,-2.495933 2.671087,-3.765794 1.882897,-1.313649 4.37883,-1.313649 z m -6.69961,-10.990863 v 33.366684 q -1.094708,-0.175153 -2.233203,0 -1.138496,0.175153 -2.101839,0.613036 -0.963342,0.394095 -1.620167,0.963343 L 56.2442,45.311641 q 0.175153,-0.613036 0.218941,-1.226072 0.08758,-0.613036 0.08758,-1.226073 V 16.017269 q 0,-1.970474 -0.613037,-2.890028 -0.569247,-0.963343 -2.189414,-0.963343 v -0.919554 q 1.401225,0.131365 2.714874,0.131365 1.79532,0 3.415487,-0.131365 1.620168,-0.175153 2.977605,-0.481671 z"
       style="fill:#2f2f41"
       id="path1893" />
    <path
       d="m 91.493799,21.753536 q 3.85337,0 6.042785,2.276992 2.189415,2.276991 2.189415,7.444011 h -14.40635 l -0.08758,-0.831978 h 8.976601 q 0.04379,-2.145627 -0.262729,-3.940947 -0.306518,-1.839109 -0.963343,-2.933816 -0.656824,-1.094708 -1.751532,-1.094708 -1.53259,0 -2.627298,1.926686 -1.050919,1.926685 -1.269861,6.393091 l 0.131365,0.26273 q -0.04379,0.52546 -0.08758,1.094708 0,0.569247 0,1.182284 0,3.021392 0.831977,4.904289 0.875766,1.882897 2.189415,2.758663 1.313649,0.831978 2.671087,0.831978 0.919554,0 1.882897,-0.26273 1.00713,-0.306518 2.014261,-1.050919 1.007131,-0.78819 1.882897,-2.189415 l 0.78819,0.26273 q -0.52546,1.663955 -1.663956,3.240334 -1.138496,1.576379 -2.890028,2.583509 -1.751532,1.007131 -4.203676,1.007131 -2.977605,0 -5.254596,-1.26986 -2.276992,-1.269861 -3.590641,-3.853371 -1.26986,-2.583509 -1.26986,-6.568245 0,-4.072312 1.357437,-6.787186 1.401225,-2.714875 3.809582,-4.028524 2.452145,-1.357437 5.561114,-1.357437 z"
       style="fill:#2f2f41"
       id="path1895" />
    <path
       d="m 117.06613,21.753536 q 1.40123,0 2.277,0.613036 0.87576,0.569248 1.26986,1.488802 0.43788,0.919555 0.43788,1.926686 0,1.620167 -0.96334,2.671086 -0.91956,1.007131 -2.45215,1.007131 -1.53259,0 -2.40835,-0.744401 -0.83198,-0.78819 -0.83198,-2.05805 0,-1.226073 0.52546,-2.014262 0.56925,-0.831978 1.40122,-1.401226 -0.61303,-0.175153 -1.22607,0.04379 -0.83198,0.131364 -1.57638,0.700612 -0.7444,0.52546 -1.26986,1.357438 -0.52546,0.788189 -0.83198,1.751532 -0.30651,0.919554 -0.30651,1.79532 v 11.603899 q 0,2.101839 1.00713,2.84624 1.05092,0.744401 3.10897,0.744401 v 0.919554 q -1.00714,-0.04379 -2.93382,-0.08758 -1.92669,-0.08758 -4.02852,-0.08758 -1.75154,0 -3.54686,0.08758 -1.79532,0.04379 -2.71487,0.08758 v -0.919554 q 1.53259,0 2.14563,-0.656825 0.65682,-0.656824 0.65682,-2.495933 V 27.139497 q 0,-1.970474 -0.61304,-2.890028 -0.56924,-0.963342 -2.18941,-0.963342 v -0.919555 q 1.40122,0.131365 2.71487,0.131365 1.83911,0 3.41549,-0.131365 1.62017,-0.175153 2.97761,-0.481671 v 4.072312 q 0.52545,-1.182284 1.40122,-2.145627 0.87577,-0.963342 2.01426,-1.488802 1.1385,-0.569248 2.53972,-0.569248 z"
       style="fill:#2f2f41"
       id="path1897" />
    <path
       d="m 133.83709,13.433759 q 2.58351,0 3.98474,0.569248 1.40122,0.52546 2.40835,1.138496 0.52546,0.306518 0.83198,0.481671 0.35031,0.131365 0.65682,0.131365 0.43789,0 0.61304,-0.481671 0.21894,-0.481672 0.35031,-1.445014 h 1.00713 q -0.0438,0.831978 -0.13137,2.014262 -0.0438,1.138495 -0.0876,3.021392 0,1.882897 0,4.948078 h -1.00714 q -0.17515,-2.276991 -1.05091,-4.422618 -0.87577,-2.145627 -2.49594,-3.503064 -1.57638,-1.401226 -3.89716,-1.401226 -2.10183,0 -3.45927,1.182284 -1.35744,1.182285 -1.35744,3.284123 0,1.751532 0.87577,3.021393 0.87576,1.226072 2.53972,2.408356 1.70774,1.182284 4.1161,2.84624 2.10184,1.357437 3.76579,2.714874 1.66396,1.357437 2.67109,3.065181 1.00713,1.707744 1.00713,4.072312 0,2.890028 -1.53259,4.772925 -1.4888,1.882896 -3.94095,2.846239 -2.45214,0.919554 -5.38596,0.919554 -2.71487,0 -4.33504,-0.525459 -1.62017,-0.52546 -2.71488,-1.094708 -0.96334,-0.613036 -1.4888,-0.613036 -0.43788,0 -0.65682,0.481671 -0.17515,0.481672 -0.30652,1.445014 h -1.00713 q 0.0876,-1.050919 0.0876,-2.452145 0.0438,-1.401225 0.0438,-3.634428 0.0438,-2.276992 0.0438,-5.736268 h 1.00713 q 0.17516,2.890028 0.96335,5.429749 0.83197,2.495934 2.49593,4.028524 1.70774,1.532591 4.51019,1.532591 1.53259,0 2.71488,-0.52546 1.22607,-0.569248 1.97047,-1.663955 0.7444,-1.094708 0.7444,-2.714875 0,-1.839109 -0.87576,-3.196546 -0.83198,-1.357437 -2.32078,-2.539721 -1.44502,-1.182284 -3.3717,-2.408357 -2.05805,-1.357437 -3.85337,-2.714874 -1.79532,-1.357438 -2.89003,-3.10897 -1.05092,-1.751532 -1.05092,-4.159888 0,-2.758663 1.35744,-4.510195 1.40122,-1.79532 3.63443,-2.627298 2.27699,-0.875766 4.81671,-0.875766 z"
       style="fill:#e5261f"
       id="path1899" />
    <path
       d="m 156.9573,21.884901 v 26.710863 q 0,2.05805 1.05092,2.714874 1.05092,0.700613 2.89003,0.700613 v 0.919554 q -1.1385,-0.04379 -3.15276,-0.131365 -1.97047,-0.04379 -4.20368,-0.04379 -1.62016,0 -3.19654,0.04379 -1.53259,0.08758 -2.32078,0.131365 v -0.919554 q 1.44501,0 2.01426,-0.613036 0.61304,-0.613036 0.61304,-2.364568 v -21.89415 q 0,-1.970474 -0.61304,-2.890028 -0.61304,-0.963342 -2.18941,-0.963342 v -0.919555 q 1.40122,0.131365 2.71487,0.131365 1.79532,0 3.41549,-0.131365 1.62017,-0.175153 2.9776,-0.481671 z m 6.78719,-0.131365 q 2.2332,0 3.98473,1.226072 1.75154,1.182285 2.80246,3.634429 1.05091,2.408357 1.05091,6.042786 0,3.196546 -0.7444,5.604902 -0.70061,2.408356 -2.05805,4.072312 -1.31365,1.620167 -3.19654,2.452145 -1.83911,0.831977 -4.15989,0.831977 -1.70774,0 -3.10897,-0.613036 -1.40123,-0.569248 -2.14563,-1.663955 L 156.607,42.77192 q 0.43788,0.788189 1.22607,1.226072 0.83198,0.437883 1.8829,0.437883 1.97047,0 3.10896,-1.313649 1.1385,-1.357437 1.62017,-3.765794 0.52546,-2.452144 0.52546,-5.823843 0,-3.765794 -0.48167,-5.911421 -0.48167,-2.145626 -1.31365,-3.065181 -0.83198,-0.919554 -2.01426,-0.919554 -1.57638,0 -2.89003,1.226072 -1.26986,1.226073 -1.44501,3.503064 l -0.21894,-1.53259 q 0.78819,-2.495933 2.67108,-3.765794 1.92669,-1.313649 4.46641,-1.313649 z"
       style="fill:#e5261f"
       id="path1901" />
    <path
       d="m 180.34027,45.311641 q -1.97047,0 -3.28412,-0.744401 -1.31365,-0.744401 -1.92669,-1.970473 -0.61303,-1.269861 -0.61303,-2.758663 0,-1.882897 0.83197,-3.065181 0.87577,-1.182284 2.23321,-1.926685 1.35743,-0.744401 2.84624,-1.226073 1.53259,-0.481671 2.89002,-0.919554 1.40123,-0.481671 2.23321,-1.094708 0.87576,-0.656824 0.87576,-1.663955 v -3.415487 q 0,-1.138496 -0.39409,-2.014262 -0.35031,-0.919554 -1.1385,-1.401226 -0.7444,-0.481671 -1.97047,-0.481671 -0.87577,0 -1.75153,0.26273 -0.87577,0.218941 -1.44502,0.788189 1.22608,0.437883 1.8829,1.357438 0.70061,0.875766 0.70061,2.014261 0,1.488803 -1.05092,2.364568 -1.00713,0.875766 -2.40835,0.875766 -1.57638,0 -2.40836,-0.963342 -0.78819,-1.007131 -0.78819,-2.408357 0,-1.26986 0.61304,-2.101838 0.65682,-0.831978 1.79532,-1.576379 1.22607,-0.700613 2.93381,-1.094707 1.75154,-0.394095 3.7658,-0.394095 2.01426,0 3.63443,0.437883 1.62016,0.394095 2.71487,1.488802 1.00713,1.007131 1.31365,2.495933 0.30652,1.445014 0.30652,3.678217 v 11.910418 q 0,1.094707 0.21894,1.53259 0.21894,0.394095 0.7444,0.394095 0.3941,0 0.7444,-0.218941 0.3941,-0.218942 0.83198,-0.52546 l 0.43788,0.744401 q -0.91955,0.78819 -2.14562,1.226073 -1.18229,0.394094 -2.67109,0.394094 -1.62017,0 -2.58351,-0.437883 -0.96334,-0.481671 -1.40123,-1.26986 -0.39409,-0.78819 -0.39409,-1.839109 -1.05092,1.663955 -2.53972,2.627298 -1.4888,0.919554 -3.63443,0.919554 z m 3.10897,-2.802451 q 0.87576,0 1.57638,-0.394095 0.7444,-0.437883 1.40122,-1.401225 v -8.976602 q -0.39409,0.656825 -1.0947,1.182284 -0.70062,0.52546 -1.48881,1.094708 -0.78819,0.52546 -1.53259,1.182284 -0.70061,0.656825 -1.13849,1.620167 -0.43789,0.963343 -0.43789,2.32078 0,1.707744 0.74441,2.539721 0.7444,0.831978 1.97047,0.831978 z"
       style="fill:#e5261f"
       id="path1903" />
    <path
       d="m 208.36477,21.753536 q 1.70774,0 3.10897,0.394095 1.44501,0.350306 2.36457,0.919554 1.13849,0.700613 1.75153,1.751532 0.65682,1.007131 0.65682,2.364568 0,1.532591 -0.96334,2.539722 -0.96334,0.963342 -2.49593,0.963342 -1.53259,0 -2.45215,-0.875766 -0.91955,-0.875766 -0.91955,-2.364568 0,-1.401226 0.87576,-2.32078 0.87577,-0.963342 2.01427,-1.269861 -0.35031,-0.437883 -1.05092,-0.744401 -0.70062,-0.306518 -1.57638,-0.306518 -1.35744,0 -2.40836,0.78819 -1.00713,0.788189 -1.70774,2.189415 -0.70061,1.401225 -1.09471,3.284122 -0.35031,1.882897 -0.35031,4.1161 0,3.371699 0.83198,5.298385 0.87577,1.926685 2.18942,2.714874 1.35743,0.788189 2.80245,0.788189 0.83198,0 1.79532,-0.262729 1.00713,-0.26273 2.01426,-1.05092 1.05092,-0.788189 1.92669,-2.233203 l 0.7444,0.26273 q -0.48167,1.620167 -1.57638,3.240334 -1.09471,1.620167 -2.84624,2.671086 -1.75153,1.007131 -4.29126,1.007131 -2.84623,0 -5.16701,-1.226072 -2.277,-1.269861 -3.67822,-3.85337 -1.35744,-2.627298 -1.35744,-6.743399 0,-3.940947 1.40123,-6.612033 1.44501,-2.714874 3.89716,-4.072312 2.45214,-1.357437 5.56111,-1.357437 z"
       style="fill:#e5261f"
       id="path1905" />
    <path
       d="m 229.9962,21.753536 q 3.85337,0 6.04279,2.276992 2.18941,2.276991 2.18941,7.444011 h -14.40635 l -0.0876,-0.831978 h 8.9766 q 0.0438,-2.145627 -0.26273,-3.940947 -0.30652,-1.839109 -0.96335,-2.933816 -0.65682,-1.094708 -1.75153,-1.094708 -1.53259,0 -2.6273,1.926686 -1.05091,1.926685 -1.26986,6.393091 l 0.13137,0.26273 q -0.0438,0.52546 -0.0876,1.094708 0,0.569247 0,1.182284 0,3.021392 0.83198,4.904289 0.87577,1.882897 2.18941,2.758663 1.31365,0.831978 2.67109,0.831978 0.91956,0 1.8829,-0.26273 1.00713,-0.306518 2.01426,-1.050919 1.00713,-0.78819 1.8829,-2.189415 l 0.78819,0.26273 q -0.52546,1.663955 -1.66396,3.240334 -1.1385,1.576379 -2.89003,2.583509 -1.75153,1.007131 -4.20367,1.007131 -2.97761,0 -5.2546,-1.26986 -2.27699,-1.269861 -3.59064,-3.853371 -1.26986,-2.583509 -1.26986,-6.568245 0,-4.072312 1.35744,-6.787186 1.40122,-2.714875 3.80958,-4.028524 2.45214,-1.357437 5.56111,-1.357437 z"
       style="fill:#e5261f"
       id="path1907" />
  </g>
</svg>
