<?xml version="1.0" encoding="UTF-8" standalone="no"?>
<svg
   width="54px"
   height="54px"
   viewBox="0 0 54 54"
   version="1.1"
   id="svg1"
   sodipodi:docname="logo-mobile.svg"
   inkscape:version="1.3.2 (091e20e, 2023-11-25, custom)"
   xmlns:inkscape="http://www.inkscape.org/namespaces/inkscape"
   xmlns:sodipodi="http://sodipodi.sourceforge.net/DTD/sodipodi-0.dtd"
   xmlns="http://www.w3.org/2000/svg"
   xmlns:svg="http://www.w3.org/2000/svg">
  <defs
     id="defs1" />
  <sodipodi:namedview
     id="namedview1"
     pagecolor="#ffffff"
     bordercolor="#000000"
     borderopacity="0.25"
     inkscape:showpageshadow="2"
     inkscape:pageopacity="0.0"
     inkscape:pagecheckerboard="0"
     inkscape:deskcolor="#d1d1d1"
     inkscape:zoom="7.5277778"
     inkscape:cx="11.95572"
     inkscape:cy="44.833948"
     inkscape:window-width="1920"
     inkscape:window-height="1009"
     inkscape:window-x="-8"
     inkscape:window-y="-8"
     inkscape:window-maximized="1"
     inkscape:current-layer="logo-mobile" />
  <title
     id="title1">logo-mobile</title>
  <g
     id="Page-1"
     stroke="none"
     stroke-width="1"
     fill="none"
     fill-rule="evenodd">
    <g
       id="logo-mobile">
      <path
         d="m 19.866516,12.157418 q 2.661984,0 4.355975,0.806662 1.734323,0.766329 3.065315,1.81499 0.806662,0.604996 1.209993,0.161332 0.443664,-0.483997 0.604997,-2.21832 h 0.927661 q -0.08067,1.492324 -0.120999,3.629979 -0.04033,2.137654 -0.04033,5.646633 h -0.927661 q -0.282331,-1.734323 -0.52433,-2.74265 -0.241999,-1.048661 -0.604997,-1.774657 -0.322664,-0.725995 -0.887328,-1.451991 -1.250326,-1.653657 -3.145982,-2.379653 -1.895655,-0.766329 -3.992976,-0.766329 -1.976322,0 -3.589646,1.008327 -1.572991,0.967995 -2.742651,2.823317 -1.129327,1.855323 -1.774656,4.476974 -0.604997,2.621652 -0.604997,5.888633 0,3.38798 0.685663,6.009632 0.685663,2.581318 1.895656,4.355975 1.250326,1.774656 2.903983,2.702317 1.69399,0.887328 3.629979,0.887328 1.814989,0 3.791311,-0.725995 1.976322,-0.725996 3.105649,-2.33932 0.887328,-1.16966 1.209993,-2.540985 0.362998,-1.371326 0.645329,-3.831645 h 0.927661 q 0,3.670312 0.04033,5.928966 0.04033,2.21832 0.120999,3.750978 h -0.927661 q -0.161333,-1.734323 -0.564664,-2.177987 -0.362998,-0.443665 -1.250326,0.120999 -1.492325,1.04866 -3.186315,1.855322 -1.653657,0.766329 -4.275308,0.766329 -3.831645,0 -6.735628,-1.734323 -2.86365,-1.734323 -4.4769739,-5.001304 -1.5729909,-3.266981 -1.5729909,-7.864955 0,-4.517307 1.6536571,-7.905287 1.6536567,-3.38798 4.5173067,-5.283636 2.903984,-1.895656 6.654962,-1.895656 z"
         id="C"
         style="font-size:40.3331px;font-family:'Playfair Display';-inkscape-font-specification:'Playfair Display, Normal';fill:#f78104;stroke-width:3.36109;fill-opacity:1"
         aria-label="C" />
      <rect
         id="Rectangle-6"
         stroke="#E5261F"
         stroke-width="4"
         fill-rule="nonzero"
         x="2"
         y="2"
         width="50"
         height="50"
         style="stroke:#f78104;stroke-opacity:1" />
      <path
         id="."
         fill="#E5261F"
         d="M34.402,41.895 C33.9259976,41.3769974 33.688,40.7400038 33.688,39.984 C33.688,39.2279962 33.9329975,38.5840027 34.423,38.052 C34.9130025,37.5199973 35.4939966,37.254 36.166,37.254 C36.8660035,37.254 37.4469977,37.5199973 37.909,38.052 C38.3710023,38.5840027 38.602,39.2279962 38.602,39.984 C38.602,40.7400038 38.3570024,41.3769974 37.867,41.895 C37.3769975,42.4130026 36.7960034,42.672 36.124,42.672 C35.4519966,42.672 34.8780024,42.4130026 34.402,41.895 Z"
         style="fill:#f78104;fill-opacity:1" />
    </g>
  </g>
</svg>
